<svg width="18" height="20" viewBox="0 0 18 20" fill="none" xmlns="http://www.w3.org/2000/svg">
<g clip-path="url(#clip0)">
<path d="M18.0016 16.5532C17.9933 16.4603 17.985 16.3714 17.9766 16.2785C17.96 16.089 17.9391 15.8994 17.9225 15.7099C17.7975 14.499 17.3768 13.3385 16.6686 12.2631C15.9104 11.1102 14.894 10.1663 13.6401 9.45841C13.6276 9.45068 13.6151 9.44681 13.6026 9.43907C13.6526 9.34236 13.6985 9.24565 13.7484 9.14894C13.8901 8.86654 14.0234 8.59961 14.14 8.31334C14.3275 7.85687 14.4233 7.35396 14.4275 6.82012V6.62282C14.4316 6.08511 14.4316 5.53191 14.4275 4.98646C14.415 3.84139 13.9692 2.71567 13.1694 1.82205C12.3654 0.928433 11.2574 0.313346 10.0493 0.0889748C9.93683 0.0696325 9.82436 0.0502901 9.71188 0.0309478C9.65773 0.0232108 9.59941 0.0116054 9.54525 0.00386847L9.53276 0H8.42884L8.41635 0.00386847C8.35386 0.0154739 8.28721 0.0270793 8.22472 0.0386847C8.08309 0.0618955 7.93313 0.0889748 7.78733 0.123791C5.80862 0.588008 4.46726 1.72147 3.80908 3.4971C3.66745 3.88395 3.57997 4.32495 3.55081 4.84719C3.51332 5.46615 3.51332 6.14313 3.54664 6.97872C3.5758 7.78723 3.83824 8.57253 4.3173 9.31141C4.33812 9.34236 4.35895 9.37331 4.37978 9.40425C4.28397 9.47002 4.18399 9.53191 4.09235 9.59381C3.81325 9.77176 3.55497 9.94197 3.30086 10.1354C1.48878 11.528 0.414033 13.2843 0.105771 15.3578C-0.0192002 16.1857 -0.00253735 17.0484 0.0224569 17.7021C0.0641139 18.7582 1.09721 19.7872 2.2761 19.9497C2.47189 19.9768 2.66768 19.9923 2.85097 19.9923C5.41704 19.9923 8.01227 19.9923 10.5825 19.9923C12.1113 19.9923 13.6276 19.9923 15.1273 19.9923C15.8271 19.9923 16.4645 19.7872 16.9644 19.4043C17.4684 19.0213 17.8017 18.4797 17.935 17.8453C17.9558 17.7485 17.9683 17.6518 17.9808 17.5551C17.985 17.5126 17.9933 17.4661 17.9975 17.4236V16.5571L18.0016 16.5532ZM12.4029 6.43327C12.3779 6.78143 12.3529 7.17215 12.2613 7.54739C12.0905 8.23984 11.6198 8.86654 10.9408 9.30367C10.2618 9.74081 9.4661 9.9381 8.69128 9.86073C7.92479 9.78336 7.24162 9.5087 6.70841 9.0677C6.1752 8.62669 5.80445 8.02708 5.64199 7.33075C5.60033 7.16054 5.5795 6.9942 5.5795 6.83946C5.57117 6.05803 5.57117 5.46615 5.5795 4.91296C5.60033 3.47002 6.90003 2.12766 8.47467 1.91876C8.6413 1.89555 8.80792 1.88395 8.97455 1.88395C9.68689 1.88395 10.3784 2.08511 10.9658 2.47195C11.6864 2.94391 12.1696 3.64023 12.3238 4.4294C12.3863 4.74275 12.3988 5.06383 12.4113 5.43907C12.4196 5.62476 12.4238 5.81818 12.4404 6.02708C12.4196 6.15474 12.4113 6.29013 12.4029 6.43327ZM5.80862 10.8511C5.83361 10.8511 5.8711 10.8588 5.88777 10.8665C6.59177 11.3114 7.36242 11.5938 8.17474 11.706C9.53275 11.8917 10.8116 11.6286 11.9739 10.913C12.103 10.8356 12.1571 10.8317 12.2821 10.8936C14.1234 11.8569 15.3023 13.3153 15.7855 15.2224C15.9688 15.9497 15.9563 16.7041 15.9313 17.4159C15.9146 17.8453 15.6188 18.1044 15.1398 18.1044C14.2483 18.1044 13.3569 18.1044 12.4696 18.1044H8.97039C8.6038 18.1044 8.23722 18.1044 7.87064 18.1044H7.32077C6.53345 18.1044 5.71697 18.1006 4.91299 18.1044C4.44227 18.1044 4.00903 18.1083 3.59246 18.1083C3.36335 18.1083 3.13007 18.1122 2.90096 18.1122C2.63435 18.1161 2.40107 18.0348 2.24278 17.8878C2.08448 17.7408 2.0095 17.5396 2.0095 17.2882V17.2186C2.01783 16.4101 2.02616 15.5706 2.28443 14.7814C2.87596 13.0367 4.05069 11.7099 5.78779 10.8549C5.79195 10.8511 5.80029 10.8511 5.80862 10.8511Z" fill="#5081E9"/>
</g>
<defs>
<clipPath id="clip0">
<rect width="18" height="20" fill="white"/>
</clipPath>
</defs>
</svg>
